# xmcd
#
# Track frame offsets:
#	150
#	4530
#	36950
#	58257
#	83110
#	113667
#	154745
#	194912
#	267182
#	304977
#	320542
#
# Disc length: 4466 seconds
#
# Revision: 1
# Processed by: cddbd v1.5.2PL0 Copyright (c) Steve Scherf et al.
# Submitted via: EasyCDDAExtractor 9.0.0.1
#
DISCID=9411700b
DTITLE=Black Sabbath - Burning The Cross Newcastle Australia 27-11-80
DYEAR=1980
DGENRE=Hard Rock
TTITLE0=Supertzar
TTITLE1=War Pigs
TTITLE2=Neon Knight
TTITLE3=NIB
TTITLE4=Children Of The Sea
TTITLE5=Sweet Leaf
TTITLE6=Black Sabbath
TTITLE7=Heaven&Hell
TTITLE8=Iron Man
TTITLE9=Die Young
TTITLE10=Paranoid
EXTD=
EXTT0=
EXTT1=
EXTT2=
EXTT3=
EXTT4=
EXTT5=
EXTT6=
EXTT7=
EXTT8=
EXTT9=
EXTT10=
PLAYORDER=
